<?xml version="1.0" encoding="utf-8"?>
<!-- Generator: Adobe Illustrator 23.0.1, SVG Export Plug-In . SVG Version: 6.00 Build 0)  -->
<svg version="1.1" id="Layer_1" xmlns="http://www.w3.org/2000/svg" xmlns:xlink="http://www.w3.org/1999/xlink" x="0px" y="0px"
	 viewBox="0 0 5880.9 1089.1" style="enable-background:new 0 0 5880.9 1089.1;" xml:space="preserve">
<style type="text/css">
	.st0{fill:#FFFFFF;}
</style>
<title>logo-navbar2</title>
<g id="Layer_1-2">
	<g>
		<path class="st0" d="M1626.6,779.6V306.9h405.2v67.6h67.5V577h-135v67.6h67.5v67.5h67.5v67.5h-202.6V712h-67.5v-67.5h-67.5v135
			L1626.6,779.6z M1761.6,577h135v-67.5h67.5v-135h-202.6L1761.6,577L1761.6,577z"/>
		<path class="st0" d="M2234.3,779.6v-67.5h-67.5V374.5h67.5v-67.6H2572v67.6h67.5v337.6H2572v67.5H2234.3z M2301.9,712.1h202.5
			V374.5h-202.6L2301.9,712.1L2301.9,712.1z"/>
		<path class="st0" d="M2842.1,779.6v-67.5h-67.5v-67.5h-67.5V442h67.5v-67.5h67.5v-67.6h337.7v67.6h-270.1V442h-67.5v202.6h67.5
			v67.5h135V577h-67.5v-67.5h202.6v270.1H2842.1z"/>
		<path class="st0" d="M3247.3,779.6V306.9H3720v67.6h-337.7v135h270.1V577h-270.1v135H3720v67.5L3247.3,779.6z"/>
		<path class="st0" d="M3922.6,779.6v-135h135v135H3922.6z"/>
		<path class="st0" d="M4327.8,779.6V306.9H4733v67.6h67.5V577H4733v67.6h-270.1v135H4327.8z M4462.8,577h202.6V374.4h-202.6V577z"
			/>
		<path class="st0" d="M4867.9,779.6V306.9h405.2v67.6h67.5V577h-135v67.6h67.5v67.5h67.5v67.5H5138V712h-67.5v-67.5H5003v135
			L4867.9,779.6z M5003.1,577h135v-67.5h67.5v-135H5003L5003.1,577L5003.1,577z"/>
		<path class="st0" d="M5475.7,779.6v-67.5h-67.5V374.5h67.5v-67.6h337.7v67.6h67.5v337.6h-67.5v67.5H5475.7z M5543.2,712.1h202.6
			V374.5h-202.6V712.1z"/>
	</g>
	<ellipse class="st0" cx="786" cy="549.8" rx="79" ry="79.3"/>
	<path class="st0" d="M809,744.7c-178.5,129-426.2,10.8-442,3l534-107.5C871.1,693,835.9,725.2,809,744.7z"/>
	<ellipse class="st0" cx="460" cy="549.8" rx="79" ry="79.3"/>
	<rect x="371" y="324.9" class="st0" width="510" height="120.5"/>
	<g>
		<polygon class="st0" points="510,198.4 510,137.1 379,137.1 379,4.5 133,4.5 133,138.1 0,138.1 0,954.6 133,954.6 133,1089.1 
			378,1089.1 378,954.6 510,954.6 510,894.3 193,894.3 193,198.4 		"/>
	</g>
	<g>
		<polygon class="st0" points="1118,4.5 876,4.5 876,138.1 742,138.1 742,198.4 1059,198.4 1059,894.3 742,894.3 742,954.6 
			876,954.6 876,1089.1 1118,1089.1 1118,954.6 1252,954.6 1252,138.1 1118,138.1 		"/>
	</g>
</g>
</svg>
