<?xml version="1.0" encoding="utf-8"?>
<!-- Generator: Adobe Illustrator 23.0.1, SVG Export Plug-In . SVG Version: 6.00 Build 0)  -->
<svg version="1.1" xmlns="http://www.w3.org/2000/svg" xmlns:xlink="http://www.w3.org/1999/xlink" x="0px" y="0px"
	 viewBox="0 0 1252 1080" style="enable-background:new 0 0 1252 1080;" xml:space="preserve">
<style type="text/css">
	.st0{fill:#FFFFFF;}
</style>
<g id="Layer_2">
</g>
<g id="Layer_1">
	<circle class="st0" cx="786" cy="543" r="79"/>
	<path class="st0" d="M809,737c-178.5,128.5-426.2,10.8-442,3l534-107C871.1,685.6,835.9,717.6,809,737z"/>
	<circle class="st0" cx="460" cy="543" r="79"/>
	<rect x="371" y="319" class="st0" width="510" height="120"/>
	<g>
		<polygon class="st0" points="510,193 510,132 379,132 379,0 133,0 133,133 0,133 0,946 133,946 133,1080 378,1080 378,946 
			510,946 510,886 193,886 193,193 		"/>
	</g>
	<g>
		<polygon class="st0" points="1118,0 876,0 876,133 742,133 742,193 1059,193 1059,886 742,886 742,946 876,946 876,1080 
			1118,1080 1118,946 1252,946 1252,133 1118,133 		"/>
	</g>
</g>
</svg>
